<?xml version="1.0" encoding="UTF-8" standalone="no"?>
<!DOCTYPE svg PUBLIC "-//W3C//DTD SVG 20010904//EN" "http://www.w3.org/TR/2001/REC-SVG-20010904/DTD/svg10.dtd">

<svg xmlns="http://www.w3.org/2000/svg"
     width="722px" height="227px"
     viewBox="0 0 2091 690">
  <path id="Seleção" fill="#F4A260" stroke="#F4A260" stroke-width="1"
        d="M 1456.00,27.00
           C 1459.20,23.10 1467.16,22.70 1472.00,22.34
             1483.36,21.51 1499.11,21.17 1510.00,24.15
             1514.22,25.31 1519.46,26.22 1522.00,30.00
             1528.45,29.68 1534.75,33.93 1540.00,37.34
             1551.52,44.82 1561.48,51.55 1569.56,63.00
             1572.78,67.56 1576.27,72.27 1576.00,78.00
             1580.26,81.19 1581.21,90.15 1582.20,95.29
             1584.87,109.26 1584.85,132.04 1580.16,145.54
             1578.75,149.61 1578.50,155.36 1575.00,158.00
             1575.66,164.43 1571.10,172.29 1568.25,178.00
             1561.04,192.41 1548.39,211.68 1536.91,222.83
             1529.54,229.99 1519.28,236.65 1515.63,246.72
             1513.49,252.63 1518.22,266.98 1517.83,277.72
             1517.68,281.76 1517.54,284.61 1514.00,287.00
             1514.01,291.64 1512.00,297.40 1508.00,300.00
             1508.00,300.00 1509.00,302.00 1509.00,302.00
             1502.14,305.18 1493.47,304.00 1486.00,304.00
             1486.00,304.00 1465.00,304.00 1465.00,304.00
             1465.00,304.00 1445.00,302.09 1445.00,302.09
             1437.92,302.49 1430.64,303.49 1424.00,306.00
             1429.92,308.75 1438.48,311.61 1445.00,312.08
             1445.00,312.08 1452.00,312.08 1452.00,312.08
             1452.00,312.08 1462.00,312.96 1462.00,312.96
             1462.00,312.96 1469.96,312.18 1469.96,312.18
             1469.96,312.18 1479.01,312.18 1479.01,312.18
             1479.01,312.18 1503.00,310.06 1503.00,310.06
             1503.00,310.06 1510.00,310.06 1510.00,310.06
             1510.00,310.06 1503.00,324.00 1503.00,324.00
             1506.87,325.12 1509.12,325.75 1510.00,330.00
             1510.00,330.00 1512.00,330.00 1512.00,330.00
             1511.54,335.42 1513.26,340.69 1508.00,344.00
             1507.18,348.49 1504.98,348.93 1502.00,352.00
             1502.00,352.00 1500.00,353.00 1500.00,353.00
             1500.00,353.00 1485.00,354.84 1485.00,354.84
             1485.00,354.84 1449.00,354.84 1449.00,354.84
             1449.00,354.84 1443.42,353.91 1443.42,353.91
             1443.42,353.91 1436.00,353.91 1436.00,353.91
             1436.00,353.91 1424.00,353.00 1424.00,353.00
             1424.00,353.00 1408.00,353.00 1408.00,353.00
             1409.55,343.10 1412.90,339.79 1422.96,340.03
             1422.96,340.03 1444.00,341.00 1444.00,341.00
             1444.00,341.00 1499.00,341.00 1499.00,341.00
             1490.55,334.14 1479.71,332.13 1469.00,332.00
             1469.00,332.00 1410.00,334.00 1410.00,334.00
             1410.00,334.00 1417.00,320.00 1417.00,320.00
             1407.46,316.18 1408.31,314.18 1408.42,304.00
             1408.47,299.52 1408.08,293.99 1409.45,289.72
             1411.01,284.85 1414.39,281.61 1415.08,276.00
             1415.62,271.61 1412.02,259.19 1410.10,255.00
             1405.44,244.84 1384.58,220.75 1376.03,202.00
             1373.56,196.59 1369.38,186.92 1370.00,181.00
             1367.39,178.89 1365.84,167.73 1365.47,163.99
             1363.51,151.80 1363.52,143.08 1365.47,130.99
             1365.47,130.99 1370.00,112.00 1370.00,112.00
             1372.06,109.95 1372.38,106.71 1373.45,104.00
             1375.75,98.14 1378.39,92.42 1381.60,87.00
             1394.57,65.08 1410.33,47.80 1433.00,35.71
             1439.23,32.38 1448.98,26.61 1456.00,27.00 Z
           M 1499.00,61.00
           C 1499.00,61.00 1476.00,56.77 1476.00,56.77
             1476.00,56.77 1458.00,56.77 1458.00,56.77
             1458.00,56.77 1435.00,60.00 1435.00,60.00
             1433.01,62.30 1429.96,62.87 1427.00,63.00
             1427.00,63.00 1427.00,65.00 1427.00,65.00
             1427.00,65.00 1423.00,67.00 1423.00,67.00
             1423.00,67.00 1421.00,66.00 1421.00,66.00
             1421.00,66.00 1421.00,68.00 1421.00,68.00
             1416.92,68.05 1416.07,68.47 1414.00,72.00
             1414.00,72.00 1407.00,74.00 1407.00,74.00
             1407.00,74.00 1406.00,77.00 1406.00,77.00
             1406.00,77.00 1403.00,79.00 1403.00,79.00
             1403.00,79.00 1399.00,82.00 1399.00,82.00
             1399.00,82.00 1397.00,81.00 1397.00,81.00
             1397.00,81.00 1387.55,94.58 1387.55,94.58
             1387.55,94.58 1385.80,106.00 1385.80,106.00
             1385.80,106.00 1385.01,117.00 1385.01,117.00
             1385.01,117.00 1385.53,130.00 1385.53,130.00
             1385.53,130.00 1389.00,151.00 1389.00,151.00
             1389.00,151.00 1396.00,164.00 1396.00,164.00
             1396.00,164.00 1395.00,166.00 1395.00,166.00
             1395.00,166.00 1397.00,166.00 1397.00,166.00
             1397.00,166.00 1396.00,168.00 1396.00,168.00
             1396.00,168.00 1398.00,168.00 1398.00,168.00
             1398.00,168.00 1397.00,170.00 1397.00,170.00
             1397.00,170.00 1399.00,170.00 1399.00,170.00
             1399.00,170.00 1398.00,172.00 1398.00,172.00
             1398.00,172.00 1400.00,172.00 1400.00,172.00
             1400.00,172.00 1399.00,174.00 1399.00,174.00
             1399.00,174.00 1401.00,174.00 1401.00,174.00
             1401.00,174.00 1400.00,176.00 1400.00,176.00
             1400.00,176.00 1402.00,176.00 1402.00,176.00
             1402.23,179.03 1402.47,179.33 1405.00,181.00
             1405.00,181.00 1404.00,183.00 1404.00,183.00
             1404.00,183.00 1408.00,186.00 1408.00,186.00
             1408.00,186.00 1407.00,188.00 1407.00,188.00
             1407.00,188.00 1413.00,193.00 1413.00,193.00
             1413.00,193.00 1412.00,195.00 1412.00,195.00
             1412.00,195.00 1416.00,197.00 1416.00,197.00
             1416.00,197.00 1419.00,201.00 1419.00,201.00
             1419.73,206.14 1424.51,212.42 1429.00,215.00
             1429.00,215.00 1428.00,217.00 1428.00,217.00
             1428.00,217.00 1430.00,217.00 1430.00,217.00
             1430.00,217.00 1432.00,221.00 1432.00,221.00
             1432.00,221.00 1435.30,237.00 1435.30,237.00
             1435.30,237.00 1437.36,255.83 1437.36,255.83
             1437.36,255.83 1441.63,270.00 1441.63,270.00
             1441.63,270.00 1439.61,283.03 1439.61,283.03
             1439.61,283.03 1439.61,289.01 1439.61,289.01
             1439.61,289.01 1454.00,289.01 1454.00,289.01
             1454.00,289.01 1465.00,289.82 1465.00,289.82
             1465.00,289.82 1476.58,290.47 1476.58,290.47
             1476.58,290.47 1495.00,291.00 1495.00,291.00
             1495.00,283.00 1495.75,265.12 1501.00,259.00
             1501.00,259.00 1501.00,254.00 1501.00,254.00
             1501.00,254.00 1503.00,254.00 1503.00,254.00
             1503.00,254.00 1502.00,252.00 1502.00,252.00
             1502.00,252.00 1504.00,252.00 1504.00,252.00
             1504.00,252.00 1503.00,250.00 1503.00,250.00
             1503.00,250.00 1505.00,250.00 1505.00,250.00
             1505.00,250.00 1504.00,248.00 1504.00,248.00
             1504.00,248.00 1506.00,248.00 1506.00,248.00
             1506.00,248.00 1508.00,244.00 1508.00,244.00
             1508.00,244.00 1507.00,242.00 1507.00,242.00
             1507.00,242.00 1511.00,239.00 1511.00,239.00
             1511.00,239.00 1510.00,237.00 1510.00,237.00
             1510.00,237.00 1525.59,218.28 1525.59,218.28
             1525.59,218.28 1543.98,200.00 1543.98,200.00
             1543.98,200.00 1557.00,186.00 1557.00,186.00
             1557.00,186.00 1561.15,171.83 1561.15,171.83
             1561.15,171.83 1562.30,164.00 1562.30,164.00
             1562.30,164.00 1562.30,134.00 1562.30,134.00
             1562.30,134.00 1558.00,114.00 1558.00,114.00
             1558.00,114.00 1556.00,114.00 1556.00,114.00
             1556.00,114.00 1553.00,104.00 1553.00,104.00
             1553.00,104.00 1552.00,102.00 1552.00,102.00
             1552.00,102.00 1550.00,99.00 1550.00,99.00
             1550.00,99.00 1547.00,98.00 1547.00,98.00
             1547.00,98.00 1548.00,96.00 1548.00,96.00
             1548.00,96.00 1538.73,86.32 1538.73,86.32
             1538.73,86.32 1531.00,79.00 1531.00,79.00
             1531.00,79.00 1529.00,80.00 1529.00,80.00
             1529.00,80.00 1525.00,77.00 1525.00,77.00
             1525.00,77.00 1524.00,74.00 1524.00,74.00
             1524.00,74.00 1522.00,75.00 1522.00,75.00
             1522.00,75.00 1521.00,72.00 1521.00,72.00
             1521.00,72.00 1516.00,69.00 1516.00,69.00
             1516.00,69.00 1514.00,70.00 1514.00,70.00
             1514.00,70.00 1514.00,68.00 1514.00,68.00
             1514.00,68.00 1512.00,69.00 1512.00,69.00
             1512.00,69.00 1512.00,67.00 1512.00,67.00
             1512.00,67.00 1510.00,68.00 1510.00,68.00
             1510.00,68.00 1510.00,66.00 1510.00,66.00
             1510.00,66.00 1508.00,67.00 1508.00,67.00
             1508.00,67.00 1508.00,65.00 1508.00,65.00
             1508.00,65.00 1506.00,66.00 1506.00,66.00
             1506.00,66.00 1506.00,64.00 1506.00,64.00
             1506.00,64.00 1504.00,65.00 1504.00,65.00
             1504.00,65.00 1504.00,63.00 1504.00,63.00
             1504.00,63.00 1499.00,63.00 1499.00,63.00
             1499.00,63.00 1499.00,61.00 1499.00,61.00 Z
           M 1542.00,89.00
           C 1542.00,89.00 1541.00,89.00 1541.00,89.00
             1541.00,89.00 1542.00,90.00 1542.00,90.00
             1542.00,90.00 1542.00,89.00 1542.00,89.00 Z
           M 1543.00,90.00
           C 1543.00,90.00 1542.00,90.00 1542.00,90.00
             1542.00,90.00 1543.00,91.00 1543.00,91.00
             1543.00,91.00 1543.00,90.00 1543.00,90.00 Z
           M 125.00,271.00
           C 125.00,271.00 132.75,269.37 132.75,269.37
             141.95,268.11 158.88,269.88 161.00,281.00
             171.34,287.02 169.78,308.05 163.89,317.00
             161.07,321.29 158.31,324.70 153.00,325.00
             150.87,328.26 149.78,328.36 146.00,328.00
             142.33,332.28 128.49,329.44 124.00,327.19
             108.80,319.60 106.99,308.33 108.24,293.00
             108.89,285.10 114.46,274.92 123.00,274.00
             123.00,274.00 123.00,272.00 123.00,272.00
             123.00,272.00 125.00,273.00 125.00,273.00
             125.00,273.00 125.00,271.00 125.00,271.00 Z
           M 504.00,275.00
           C 504.00,275.00 538.00,276.00 538.00,276.00
             538.00,276.00 539.00,290.00 539.00,290.00
             539.00,290.00 539.00,421.00 539.00,421.00
             539.00,421.00 539.00,663.00 539.00,663.00
             539.00,663.00 508.00,664.00 508.00,664.00
             508.00,664.00 505.10,624.17 505.10,624.17
             505.10,624.17 503.00,605.00 503.00,605.00
             503.00,605.00 500.00,608.00 500.00,608.00
             500.66,613.83 498.08,623.73 493.00,627.00
             492.73,634.91 479.77,649.70 472.00,651.00
             472.00,651.00 471.00,654.00 471.00,654.00
             471.00,654.00 469.00,653.00 469.00,653.00
             466.33,657.44 462.04,659.09 457.00,659.00
             457.00,659.00 457.00,661.00 457.00,661.00
             457.00,661.00 436.00,665.98 436.00,665.98
             422.14,668.16 402.76,667.60 389.04,664.67
             383.14,663.41 372.80,662.96 369.00,658.00
             369.00,658.00 367.00,659.00 367.00,659.00
             367.00,659.00 367.00,657.00 367.00,657.00
             367.00,657.00 363.00,655.00 363.00,655.00
             357.62,654.99 354.20,652.24 350.00,649.10
             340.64,642.13 337.05,638.40 330.15,629.00
             327.08,624.81 324.04,621.33 324.00,616.00
             324.00,616.00 322.00,612.00 322.00,612.00
             322.00,612.00 320.00,612.00 320.00,612.00
             320.00,612.00 318.00,603.00 318.00,603.00
             314.41,600.25 313.44,595.31 314.00,591.00
             310.78,588.35 310.82,584.32 310.11,580.42
             310.11,580.42 307.27,561.00 307.27,561.00
             307.27,561.00 306.00,504.00 306.00,504.00
             306.00,504.00 308.27,483.83 308.27,483.83
             308.27,483.83 312.84,462.46 312.84,462.46
             313.72,459.89 313.89,457.79 316.00,456.00
             316.00,456.00 317.00,453.00 317.00,453.00
             317.00,453.00 316.00,450.00 316.00,450.00
             316.00,450.00 323.26,434.00 323.26,434.00
             330.02,420.83 338.22,410.63 350.00,401.65
             354.66,398.10 359.95,394.01 366.00,394.00
             368.13,390.86 369.32,390.83 373.00,391.00
             375.09,388.35 375.74,388.60 379.00,389.00
             380.84,386.66 384.17,386.11 387.00,385.44
             392.55,384.12 400.32,383.03 406.00,383.00
             420.64,382.93 429.43,382.61 444.02,385.52
             444.02,385.52 460.00,390.00 460.00,390.00
             460.00,390.00 460.00,392.00 460.00,392.00
             471.07,392.01 485.68,407.16 491.19,416.00
             493.96,420.45 496.52,423.62 496.00,429.00
             496.00,429.00 504.00,444.00 504.00,444.00
             504.00,444.00 504.00,275.00 504.00,275.00 Z
           M 1260.00,378.00
           C 1262.62,373.92 1275.11,368.53 1280.00,365.72
             1280.00,365.72 1310.00,345.26 1310.00,345.26
             1317.58,339.58 1319.32,335.85 1329.00,334.00
             1329.00,334.00 1322.53,371.92 1322.53,371.92
             1322.09,374.41 1320.02,385.08 1320.63,386.69
             1321.70,389.52 1326.54,389.00 1329.00,389.00
             1329.00,389.00 1387.00,389.00 1387.00,389.00
             1387.00,389.00 1387.00,396.00 1387.00,396.00
             1387.00,396.00 1333.00,396.00 1333.00,396.00
             1328.55,396.01 1322.78,395.76 1319.49,399.30
             1316.10,402.94 1315.69,412.92 1314.67,418.00
             1314.67,418.00 1306.03,465.42 1306.03,465.42
             1306.03,465.42 1289.59,561.00 1289.59,561.00
             1287.49,573.55 1282.12,596.92 1282.92,608.58
             1283.88,622.48 1294.50,633.41 1308.00,635.56
             1317.80,637.12 1330.72,632.64 1339.00,627.53
             1346.66,622.81 1347.32,619.88 1357.00,617.00
             1357.00,617.00 1357.00,621.00 1357.00,621.00
             1357.00,621.00 1355.00,621.00 1355.00,621.00
             1354.74,626.52 1350.86,629.91 1347.41,634.00
             1340.36,642.36 1332.30,649.78 1323.00,655.58
             1318.40,658.44 1314.56,661.08 1309.00,661.00
             1306.91,663.65 1306.26,663.40 1303.00,663.00
             1300.65,665.99 1294.63,666.52 1291.00,667.20
             1283.60,668.57 1263.22,668.37 1256.09,666.19
             1252.42,665.08 1248.20,664.25 1246.00,661.00
             1246.00,661.00 1244.00,662.00 1244.00,662.00
             1244.00,662.00 1244.00,660.00 1244.00,660.00
             1234.15,659.66 1220.77,641.71 1222.00,632.00
             1217.58,628.35 1218.00,611.90 1218.00,606.00
             1218.02,585.63 1224.19,559.95 1227.95,539.43
             1227.95,539.43 1243.79,450.29 1243.79,450.29
             1243.79,450.29 1250.88,411.29 1250.88,411.29
             1251.34,408.59 1253.60,399.55 1252.15,397.60
             1250.35,395.19 1239.15,395.97 1236.00,396.00
             1228.35,396.09 1224.17,399.08 1218.00,393.00
             1218.00,393.00 1220.00,394.00 1220.00,394.00
             1220.00,394.00 1220.00,392.00 1220.00,392.00
             1220.00,392.00 1225.00,390.00 1225.00,390.00
             1225.00,390.00 1228.00,391.00 1228.00,391.00
             1228.00,391.00 1233.00,387.00 1233.00,387.00
             1233.00,387.00 1236.00,388.00 1236.00,388.00
             1238.68,384.02 1246.35,381.77 1251.00,382.00
             1253.33,378.54 1255.97,377.94 1260.00,378.00 Z
           M 1015.00,386.00
           C 1017.28,383.10 1025.32,382.14 1029.00,381.48
             1039.61,379.58 1057.94,379.30 1068.58,380.94
             1072.84,381.60 1078.09,381.46 1081.00,385.00
             1089.81,384.09 1099.63,392.24 1106.00,397.59
             1108.60,399.78 1112.63,404.11 1116.00,404.36
             1118.47,404.55 1124.44,401.80 1127.00,400.81
             1134.13,398.05 1150.14,390.62 1157.00,391.00
             1159.40,387.81 1161.15,387.60 1165.00,388.00
             1165.00,388.00 1169.00,386.00 1169.00,386.00
             1169.00,386.00 1160.07,440.42 1160.07,440.42
             1160.07,440.42 1143.37,538.00 1143.37,538.00
             1143.37,538.00 1136.78,575.09 1136.78,575.09
             1136.78,575.09 1134.95,584.42 1134.95,584.42
             1134.95,584.42 1130.42,615.00 1130.42,615.00
             1129.00,624.15 1127.07,630.85 1135.04,637.77
             1137.99,640.33 1140.17,640.96 1144.00,640.97
             1155.73,640.99 1161.56,629.85 1171.00,625.00
             1171.00,625.00 1172.00,628.00 1172.00,628.00
             1172.00,628.00 1171.00,630.00 1171.00,630.00
             1171.00,630.00 1169.00,630.00 1169.00,630.00
             1168.76,636.83 1159.79,646.26 1155.00,650.99
             1140.84,664.96 1126.27,668.13 1107.00,668.00
             1095.08,667.91 1084.54,665.44 1076.33,655.96
             1062.96,640.53 1064.52,616.71 1067.27,598.00
             1068.35,590.69 1072.07,578.67 1070.00,572.00
             1067.30,581.47 1056.89,596.74 1051.00,605.00
             1047.56,609.82 1044.42,615.31 1039.00,618.00
             1038.16,622.37 1036.92,623.12 1033.00,625.00
             1031.82,631.23 1021.93,639.25 1017.00,643.41
             998.20,659.27 978.17,669.67 953.00,667.75
             946.61,667.27 933.18,667.36 929.00,662.00
             919.94,662.16 909.76,652.53 904.32,646.00
             901.37,642.46 899.16,639.68 899.00,635.00
             899.00,635.00 897.00,635.00 897.00,635.00
             897.00,635.00 898.00,633.00 898.00,633.00
             898.00,633.00 896.00,633.00 896.00,633.00
             896.00,633.00 897.00,631.00 897.00,631.00
             897.00,631.00 895.00,631.00 895.00,631.00
             895.00,631.00 892.00,624.00 892.00,624.00
             892.00,624.00 893.00,621.00 893.00,621.00
             889.67,618.43 889.32,612.86 888.30,608.91
             885.04,596.22 885.98,582.98 886.00,570.00
             886.02,554.28 888.56,539.19 892.46,524.01
             892.46,524.01 894.72,514.00 894.72,514.00
             904.49,480.74 924.20,447.22 949.00,423.01
             958.70,413.55 970.23,404.98 982.00,398.28
             987.14,395.35 991.92,391.91 998.00,392.00
             1000.90,388.13 1010.30,385.42 1015.00,386.00 Z
           M 1918.00,387.00
           C 1920.41,384.11 1928.14,382.87 1932.01,381.91
             1941.07,379.65 1965.57,378.96 1974.72,380.77
             1978.61,381.54 1984.34,381.86 1987.00,385.00
             1987.00,385.00 1990.00,384.00 1990.00,384.00
             1990.00,384.00 1995.00,388.00 1995.00,388.00
             2005.90,388.02 2014.30,401.36 2020.00,403.97
             2023.01,405.30 2025.41,403.73 2030.00,403.97
             2032.62,400.50 2038.93,398.69 2043.00,397.01
             2054.59,392.23 2062.49,388.84 2075.00,387.00
             2075.00,387.00 2067.05,435.58 2067.05,435.58
             2067.05,435.58 2047.21,551.00 2047.21,551.00
             2047.21,551.00 2040.58,590.00 2040.58,590.00
             2038.83,599.51 2036.12,611.37 2036.00,621.00
             2036.00,621.00 2036.00,625.00 2036.00,625.00
             2036.04,627.95 2036.08,630.28 2037.45,633.00
             2038.53,635.12 2040.12,636.95 2042.04,638.35
             2044.87,640.41 2047.57,640.97 2051.00,640.97
             2063.37,640.97 2066.92,630.41 2077.00,625.00
             2077.00,625.00 2078.00,629.00 2078.00,629.00
             2078.00,629.00 2076.00,629.00 2076.00,629.00
             2075.93,635.56 2069.34,642.42 2064.96,647.00
             2048.25,664.50 2037.59,668.16 2014.00,668.00
             2008.61,667.96 2000.62,668.68 1997.00,664.00
             1997.00,664.00 1995.00,665.00 1995.00,665.00
             1995.00,665.00 1995.00,663.00 1995.00,663.00
             1985.85,662.90 1978.14,650.83 1975.35,643.00
             1970.33,628.94 1971.40,612.50 1973.77,598.00
             1974.93,590.89 1978.33,577.57 1977.00,571.00
             1974.16,580.94 1962.25,598.24 1956.00,607.00
             1952.35,612.11 1948.74,618.15 1943.00,621.00
             1942.12,625.63 1935.69,633.07 1931.00,634.00
             1931.00,634.00 1930.00,635.00 1930.00,635.00
             1929.00,639.59 1924.51,643.15 1920.00,644.00
             1916.44,651.19 1906.97,655.76 1900.00,659.25
             1876.74,670.88 1846.48,672.33 1824.00,657.91
             1815.53,652.48 1802.01,638.67 1802.00,628.00
             1798.81,625.60 1798.60,623.85 1799.00,620.00
             1795.78,617.47 1794.59,607.79 1793.90,603.72
             1793.90,603.72 1792.26,584.00 1792.26,584.00
             1792.26,584.00 1792.26,577.09 1792.26,577.09
             1792.26,577.09 1792.26,569.96 1792.26,569.96
             1792.26,569.96 1793.29,554.00 1793.29,554.00
             1793.60,542.77 1797.05,530.38 1799.99,519.59
             1799.99,519.59 1802.02,511.00 1802.02,511.00
             1812.39,477.38 1830.18,448.81 1855.00,424.00
             1863.78,415.22 1873.39,407.31 1884.00,400.81
             1888.46,398.08 1892.65,395.01 1898.00,395.00
             1900.38,391.33 1902.78,390.79 1907.00,391.00
             1907.00,391.00 1912.00,387.00 1912.00,387.00
             1912.00,387.00 1915.00,388.00 1915.00,388.00
             1915.00,388.00 1918.00,387.00 1918.00,387.00 Z
           M 643.00,439.00
           C 643.27,430.49 655.13,417.87 661.00,412.00
             678.77,394.23 704.10,385.36 728.83,383.28
             728.83,383.28 764.00,384.00 764.00,384.00
             769.86,384.07 784.43,386.34 788.00,391.00
             791.68,390.83 792.87,390.86 795.00,394.00
             795.00,394.00 797.00,393.00 797.00,393.00
             797.00,393.00 797.00,395.00 797.00,395.00
             802.60,395.01 807.56,398.74 812.00,401.91
             822.39,409.32 828.00,415.41 835.00,426.00
             837.92,430.42 840.99,434.57 841.00,440.00
             841.00,440.00 846.00,447.00 846.00,447.00
             846.00,447.00 845.00,450.00 845.00,450.00
             848.70,452.80 850.73,465.16 851.82,470.01
             857.21,493.89 853.98,513.32 855.00,537.00
             855.00,537.00 660.00,537.00 660.00,537.00
             659.61,548.53 663.34,560.25 667.32,571.00
             671.02,581.01 676.82,591.16 684.09,599.00
             706.55,623.23 729.94,630.89 762.00,633.09
             762.00,633.09 772.00,634.00 772.00,634.00
             772.00,634.00 785.00,632.96 785.00,632.96
             785.00,632.96 794.00,632.96 794.00,632.96
             794.00,632.96 838.00,627.00 838.00,627.00
             837.65,632.26 840.35,642.09 841.24,648.00
             841.77,651.54 842.08,656.64 839.42,659.49
             837.32,661.73 833.69,661.73 830.83,662.29
             830.83,662.29 809.00,664.60 809.00,664.60
             784.08,667.57 756.10,668.89 731.28,664.60
             725.43,663.31 710.46,661.48 707.00,657.00
             703.25,657.21 701.37,657.09 699.00,654.00
             694.43,653.99 689.52,651.92 687.00,648.00
             683.79,647.64 683.75,647.74 682.00,645.00
             675.71,644.38 670.62,638.98 666.00,635.00
             654.48,625.06 645.30,612.77 638.78,599.00
             636.46,594.09 633.43,588.50 634.00,583.00
             634.00,583.00 633.00,580.00 633.00,580.00
             629.92,577.47 629.95,574.23 629.00,570.58
             627.27,563.94 626.07,557.86 625.62,550.99
             624.14,528.51 622.89,499.01 627.66,477.00
             628.90,471.29 631.55,457.41 636.00,454.00
             635.75,448.89 638.61,441.82 643.00,439.00 Z
           M 1492.00,384.00
           C 1493.19,388.19 1491.36,393.64 1490.83,398.00
             1490.83,398.00 1484.92,435.42 1484.92,435.42
             1484.92,435.42 1476.07,486.58 1476.07,486.58
             1476.07,486.58 1461.25,574.00 1461.25,574.00
             1461.25,574.00 1454.00,621.00 1454.00,621.00
             1454.00,628.67 1455.64,635.62 1462.99,639.56
             1476.49,646.80 1487.31,629.33 1498.00,625.00
             1496.10,633.08 1492.44,637.81 1487.13,644.00
             1474.76,658.42 1459.24,667.37 1440.00,667.86
             1433.79,668.01 1421.05,669.24 1417.00,664.00
             1417.00,664.00 1415.00,665.00 1415.00,665.00
             1415.00,665.00 1415.00,663.00 1415.00,663.00
             1411.68,662.80 1411.75,662.84 1410.00,660.00
             1400.63,658.23 1395.73,643.99 1393.87,635.72
             1388.20,610.61 1394.89,583.82 1398.47,558.96
             1398.47,558.96 1403.95,528.42 1403.95,528.42
             1403.95,528.42 1410.63,487.00 1410.63,487.00
             1412.48,475.93 1415.94,461.94 1416.00,451.00
             1416.06,440.13 1414.75,435.09 1408.12,426.00
             1405.91,422.98 1400.56,417.26 1403.07,413.26
             1405.12,410.01 1418.92,408.48 1423.00,407.58
             1435.85,404.74 1448.68,401.22 1461.00,396.58
             1467.03,394.30 1477.04,388.92 1483.00,389.00
             1483.00,389.00 1483.00,387.00 1483.00,387.00
             1483.00,387.00 1492.00,384.00 1492.00,384.00 Z
           M 29.00,388.00
           C 29.00,388.00 159.00,388.00 159.00,388.00
             159.00,388.00 159.00,631.00 159.00,631.00
             159.00,631.00 248.00,631.00 248.00,631.00
             248.00,631.00 248.00,662.00 248.00,662.00
             248.00,662.00 14.00,662.00 14.00,662.00
             14.00,662.00 14.00,631.00 14.00,631.00
             14.00,631.00 123.00,631.00 123.00,631.00
             123.00,631.00 123.00,420.00 123.00,420.00
             123.00,420.00 29.00,420.00 29.00,420.00
             29.00,420.00 29.00,388.00 29.00,388.00 Z
           M 1076.00,391.00
           C 1076.00,391.00 1066.00,389.48 1066.00,389.48
             1066.00,389.48 1049.00,390.00 1049.00,390.00
             1049.00,390.00 1033.00,397.00 1033.00,397.00
             1033.00,397.00 1029.00,402.00 1029.00,402.00
             1029.00,402.00 1027.00,401.00 1027.00,401.00
             1022.63,406.78 1014.45,409.34 1013.00,417.00
             1010.02,418.78 1009.73,418.58 1009.00,422.00
             1006.02,423.78 1005.73,423.58 1005.00,427.00
             1005.00,427.00 1003.00,430.00 1003.00,430.00
             1003.00,430.00 1001.00,433.00 1001.00,433.00
             1001.00,433.00 999.00,436.00 999.00,436.00
             999.00,436.00 996.00,437.00 996.00,437.00
             996.00,437.00 997.00,439.00 997.00,439.00
             997.00,439.00 994.00,440.00 994.00,440.00
             994.00,440.00 995.00,442.00 995.00,442.00
             995.00,442.00 993.00,442.00 993.00,442.00
             993.00,442.00 990.00,451.00 990.00,451.00
             990.00,451.00 988.00,451.00 988.00,451.00
             988.00,451.00 989.00,453.00 989.00,453.00
             989.00,453.00 987.00,453.00 987.00,453.00
             987.00,453.00 988.00,455.00 988.00,455.00
             988.00,455.00 986.00,455.00 986.00,455.00
             986.00,455.00 987.00,457.00 987.00,457.00
             987.00,457.00 985.00,457.00 985.00,457.00
             985.00,457.00 986.00,459.00 986.00,459.00
             986.00,459.00 984.00,459.00 984.00,459.00
             984.00,459.00 985.00,461.00 985.00,461.00
             985.00,461.00 983.00,461.00 983.00,461.00
             983.00,461.00 984.00,463.00 984.00,463.00
             984.00,463.00 982.00,463.00 982.00,463.00
             982.00,463.00 981.00,470.00 981.00,470.00
             981.00,470.00 979.00,470.00 979.00,470.00
             979.00,470.00 978.00,477.00 978.00,477.00
             978.00,477.00 976.00,477.00 976.00,477.00
             976.00,477.00 975.00,485.00 975.00,485.00
             975.00,485.00 973.00,485.00 973.00,485.00
             973.00,485.00 969.00,503.00 969.00,503.00
             969.00,503.00 965.00,510.00 965.00,510.00
             965.00,510.00 961.60,526.83 961.60,526.83
             961.60,526.83 957.60,549.00 957.60,549.00
             957.60,549.00 956.60,561.00 956.60,561.00
             956.60,561.00 955.09,572.00 955.09,572.00
             955.09,572.00 955.96,583.00 955.96,583.00
             955.96,583.00 955.12,593.00 955.12,593.00
             955.12,593.00 958.00,611.00 958.00,611.00
             960.16,613.51 962.79,618.68 963.00,622.00
             963.00,622.00 974.00,632.00 974.00,632.00
             974.00,632.00 981.00,632.91 981.00,632.91
             981.00,632.91 990.00,632.91 990.00,632.91
             990.00,632.91 1003.00,632.00 1003.00,632.00
             1003.00,632.00 1010.00,627.00 1010.00,627.00
             1015.41,626.47 1021.57,621.82 1024.00,617.00
             1029.57,615.95 1038.95,606.57 1040.00,601.00
             1043.44,599.07 1044.21,598.95 1045.00,595.00
             1045.00,595.00 1049.00,593.00 1049.00,593.00
             1049.00,593.00 1048.00,591.00 1048.00,591.00
             1048.00,591.00 1051.00,587.00 1051.00,587.00
             1051.00,587.00 1058.00,580.00 1058.00,580.00
             1058.00,580.00 1057.00,578.00 1057.00,578.00
             1057.00,578.00 1060.00,577.00 1060.00,577.00
             1060.00,577.00 1062.00,574.00 1062.00,574.00
             1062.00,574.00 1065.00,569.00 1065.00,569.00
             1065.00,569.00 1064.00,567.00 1064.00,567.00
             1064.00,567.00 1068.00,564.00 1068.00,564.00
             1068.00,564.00 1067.00,562.00 1067.00,562.00
             1067.00,562.00 1069.00,562.00 1069.00,562.00
             1069.00,562.00 1072.00,553.00 1072.00,553.00
             1072.00,553.00 1074.00,553.00 1074.00,553.00
             1074.00,553.00 1073.00,551.00 1073.00,551.00
             1073.00,551.00 1075.00,551.00 1075.00,551.00
             1075.00,551.00 1074.00,549.00 1074.00,549.00
             1074.00,549.00 1076.00,549.00 1076.00,549.00
             1076.00,549.00 1082.01,517.72 1082.01,517.72
             1082.01,517.72 1091.54,466.00 1091.54,466.00
             1091.54,466.00 1093.07,455.00 1093.07,455.00
             1094.93,445.74 1098.95,429.06 1098.33,420.17
             1098.33,420.17 1097.00,412.00 1097.00,412.00
             1097.00,412.00 1095.00,412.00 1095.00,412.00
             1095.00,412.00 1093.00,404.00 1093.00,404.00
             1093.00,404.00 1082.80,394.94 1082.80,394.94
             1082.80,394.94 1076.00,391.00 1076.00,391.00 Z
           M 1987.00,393.00
           C 1987.00,393.00 1974.00,389.90 1974.00,389.90
             1974.00,389.90 1960.00,389.90 1960.00,389.90
             1960.00,389.90 1952.00,391.00 1952.00,391.00
             1952.00,391.00 1947.00,393.00 1947.00,393.00
             1947.00,393.00 1947.00,395.00 1947.00,395.00
             1947.00,395.00 1941.00,396.00 1941.00,396.00
             1941.00,396.00 1938.00,400.00 1938.00,400.00
             1938.00,400.00 1936.00,399.00 1936.00,399.00
             1936.00,399.00 1934.00,403.00 1934.00,403.00
             1934.00,403.00 1931.28,403.77 1931.28,403.77
             1931.28,403.77 1917.77,417.28 1917.77,417.28
             1917.77,417.28 1917.00,420.00 1917.00,420.00
             1914.02,421.78 1913.73,421.58 1913.00,425.00
             1913.00,425.00 1907.00,430.00 1907.00,430.00
             1907.00,430.00 1908.00,432.00 1908.00,432.00
             1908.00,432.00 1905.00,433.00 1905.00,433.00
             1905.00,433.00 1906.00,435.00 1906.00,435.00
             1906.00,435.00 1903.00,436.00 1903.00,436.00
             1903.00,436.00 1904.00,438.00 1904.00,438.00
             1901.26,439.75 1901.36,439.79 1901.00,443.00
             1901.00,443.00 1899.00,443.00 1899.00,443.00
             1899.00,443.00 1896.00,448.00 1896.00,448.00
             1896.00,448.00 1897.00,450.00 1897.00,450.00
             1897.00,450.00 1895.00,450.00 1895.00,450.00
             1895.00,450.00 1896.00,452.00 1896.00,452.00
             1896.00,452.00 1894.00,452.00 1894.00,452.00
             1894.00,452.00 1892.00,456.00 1892.00,456.00
             1892.00,456.00 1893.00,458.00 1893.00,458.00
             1893.00,458.00 1891.00,458.00 1891.00,458.00
             1891.00,458.00 1892.00,460.00 1892.00,460.00
             1892.00,460.00 1890.00,460.00 1890.00,460.00
             1890.00,460.00 1887.00,471.00 1887.00,471.00
             1887.00,471.00 1885.00,471.00 1885.00,471.00
             1885.00,471.00 1885.00,476.00 1885.00,476.00
             1885.00,476.00 1883.00,476.00 1883.00,476.00
             1883.00,476.00 1883.00,481.00 1883.00,481.00
             1883.00,481.00 1881.00,481.00 1881.00,481.00
             1880.99,484.25 1880.25,486.63 1878.00,489.00
             1878.00,489.00 1879.00,492.00 1879.00,492.00
             1879.00,492.00 1877.00,492.00 1877.00,492.00
             1877.00,492.00 1878.00,495.00 1878.00,495.00
             1878.00,495.00 1876.00,495.00 1876.00,495.00
             1876.00,495.00 1871.73,512.16 1871.73,512.16
             1871.73,512.16 1863.28,553.00 1863.28,553.00
             1863.28,553.00 1862.34,563.00 1862.34,563.00
             1862.34,563.00 1862.34,570.00 1862.34,570.00
             1862.34,570.00 1862.34,578.00 1862.34,578.00
             1862.34,578.00 1863.00,591.00 1863.00,591.00
             1863.00,591.00 1867.00,618.00 1867.00,618.00
             1867.00,618.00 1869.00,618.00 1869.00,618.00
             1869.22,622.70 1872.29,627.06 1877.00,628.00
             1877.00,628.00 1878.00,631.00 1878.00,631.00
             1878.00,631.00 1880.00,630.00 1880.00,630.00
             1880.00,630.00 1880.00,632.00 1880.00,632.00
             1880.00,632.00 1887.00,632.91 1887.00,632.91
             1887.00,632.91 1896.00,632.91 1896.00,632.91
             1896.00,632.91 1909.00,632.00 1909.00,632.00
             1909.00,632.00 1914.00,630.00 1914.00,630.00
             1914.00,630.00 1914.00,628.00 1914.00,628.00
             1914.00,628.00 1916.00,629.00 1916.00,629.00
             1916.00,629.00 1916.00,627.00 1916.00,627.00
             1916.00,627.00 1918.00,628.00 1918.00,628.00
             1918.00,628.00 1918.00,626.00 1918.00,626.00
             1918.00,626.00 1921.00,624.00 1921.00,624.00
             1921.00,624.00 1923.00,625.00 1923.00,625.00
             1923.00,625.00 1924.00,622.00 1924.00,622.00
             1924.00,622.00 1926.00,623.00 1926.00,623.00
             1926.00,623.00 1928.00,619.00 1928.00,619.00
             1932.52,618.17 1934.02,615.16 1937.09,611.96
             1937.09,611.96 1953.00,596.00 1953.00,596.00
             1953.00,596.00 1952.00,594.00 1952.00,594.00
             1952.00,594.00 1961.00,585.00 1961.00,585.00
             1961.00,585.00 1968.00,571.00 1968.00,571.00
             1968.00,571.00 1971.00,570.00 1971.00,570.00
             1971.00,570.00 1970.00,568.00 1970.00,568.00
             1974.14,565.52 1976.61,560.74 1977.00,556.00
             1977.00,556.00 1979.00,556.00 1979.00,556.00
             1979.00,556.00 1978.00,554.00 1978.00,554.00
             1978.00,554.00 1980.00,554.00 1980.00,554.00
             1980.00,554.00 1979.00,552.00 1979.00,552.00
             1979.00,552.00 1981.00,552.00 1981.00,552.00
             1981.00,552.00 1980.00,550.00 1980.00,550.00
             1980.00,550.00 1982.00,550.00 1982.00,550.00
             1982.00,550.00 1981.00,548.00 1981.00,548.00
             1981.00,548.00 1983.00,548.00 1983.00,548.00
             1983.00,548.00 1989.85,510.00 1989.85,510.00
             1989.85,510.00 2000.84,448.00 2000.84,448.00
             2000.84,448.00 2004.35,431.00 2004.35,431.00
             2004.35,431.00 2002.59,412.58 2002.59,412.58
             2002.59,412.58 2000.00,405.00 2000.00,405.00
             2000.00,405.00 1997.00,404.00 1997.00,404.00
             1997.00,404.00 1992.00,396.00 1992.00,396.00
             1992.00,396.00 1990.00,397.00 1990.00,397.00
             1990.00,397.00 1989.00,394.00 1989.00,394.00
             1989.00,394.00 1987.00,395.00 1987.00,395.00
             1987.00,395.00 1987.00,393.00 1987.00,393.00 Z
           M 1531.00,392.00
           C 1541.93,387.42 1543.65,389.95 1554.00,390.00
             1554.00,390.00 1611.00,390.00 1611.00,390.00
             1619.13,390.00 1634.80,389.25 1642.00,391.00
             1640.13,399.58 1635.22,397.02 1626.10,407.00
             1618.17,415.69 1617.88,422.12 1618.00,433.00
             1618.00,433.00 1624.80,497.96 1624.80,497.96
             1624.80,497.96 1625.68,512.00 1625.68,512.00
             1625.68,512.00 1627.69,526.00 1627.69,526.00
             1627.69,526.00 1628.59,541.00 1628.59,541.00
             1628.59,541.00 1632.85,571.91 1632.85,571.91
             1632.85,571.91 1636.67,613.00 1636.67,613.00
             1636.67,613.00 1640.00,646.00 1640.00,646.00
             1651.32,634.43 1666.00,612.12 1674.95,598.00
             1678.48,592.43 1684.93,579.04 1690.00,576.00
             1690.04,571.19 1692.91,565.62 1697.00,563.00
             1697.01,557.60 1700.38,552.74 1702.75,548.00
             1702.75,548.00 1714.99,521.00 1714.99,521.00
             1727.51,490.64 1740.27,451.71 1743.25,419.00
             1743.25,419.00 1744.29,412.00 1744.29,412.00
             1744.29,412.00 1744.29,405.00 1744.29,405.00
             1744.68,398.11 1747.03,398.46 1745.00,390.04
             1745.00,390.04 1758.00,390.04 1758.00,390.04
             1758.00,390.04 1769.00,391.00 1769.00,391.00
             1769.00,391.00 1787.00,391.00 1787.00,391.00
             1786.83,398.61 1784.40,406.78 1782.75,414.27
             1782.75,414.27 1771.31,455.00 1771.31,455.00
             1769.38,460.40 1765.55,473.05 1761.00,476.00
             1761.27,481.54 1758.67,485.16 1756.25,490.00
             1756.25,490.00 1744.22,514.00 1744.22,514.00
             1729.63,541.65 1708.45,573.78 1689.88,599.00
             1689.88,599.00 1675.65,618.00 1675.65,618.00
             1672.40,622.23 1670.84,625.50 1666.00,628.00
             1665.19,633.70 1659.35,639.36 1655.87,644.00
             1649.77,652.14 1643.34,663.79 1632.00,664.00
             1632.00,664.00 1582.00,664.00 1582.00,664.00
             1582.00,664.00 1574.28,599.00 1574.28,599.00
             1574.28,599.00 1569.00,554.72 1569.00,554.72
             1569.00,554.72 1558.15,471.00 1558.15,471.00
             1558.15,471.00 1555.19,447.00 1555.19,447.00
             1552.45,425.32 1551.72,411.12 1532.00,397.00
             1532.00,397.00 1531.00,392.00 1531.00,392.00 Z
           M 1088.00,398.00
           C 1088.00,398.00 1087.00,398.00 1087.00,398.00
             1087.00,398.00 1088.00,399.00 1088.00,399.00
             1088.00,399.00 1088.00,398.00 1088.00,398.00 Z
           M 1089.00,399.00
           C 1089.00,399.00 1088.00,399.00 1088.00,399.00
             1088.00,399.00 1089.00,400.00 1089.00,400.00
             1089.00,400.00 1089.00,399.00 1089.00,399.00 Z
           M 1108.00,400.00
           C 1108.00,400.00 1107.00,400.00 1107.00,400.00
             1107.00,400.00 1108.00,401.00 1108.00,401.00
             1108.00,401.00 1108.00,400.00 1108.00,400.00 Z
           M 455.00,420.00
           C 455.00,420.00 435.00,415.68 435.00,415.68
             435.00,415.68 410.00,415.68 410.00,415.68
             410.00,415.68 399.00,417.00 399.00,417.00
             399.00,417.00 390.00,422.00 390.00,422.00
             390.00,422.00 384.00,423.00 384.00,423.00
             384.00,423.00 384.00,425.00 384.00,425.00
             384.00,425.00 382.00,424.00 382.00,424.00
             382.00,424.00 382.00,426.00 382.00,426.00
             382.00,426.00 379.00,428.00 379.00,428.00
             379.00,428.00 377.00,427.00 377.00,427.00
             373.37,432.01 366.32,434.46 365.00,441.00
             365.00,441.00 359.00,446.00 359.00,446.00
             359.00,446.00 360.00,448.00 360.00,448.00
             360.00,448.00 357.00,449.00 357.00,449.00
             357.00,449.00 358.00,451.00 358.00,451.00
             358.00,451.00 356.00,451.00 356.00,451.00
             356.00,451.00 357.00,453.00 357.00,453.00
             357.00,453.00 355.00,453.00 355.00,453.00
             355.00,453.00 353.00,457.00 353.00,457.00
             353.00,457.00 354.00,459.00 354.00,459.00
             354.00,459.00 352.00,459.00 352.00,459.00
             352.00,459.00 350.00,464.00 350.00,464.00
             350.00,464.00 347.00,473.00 347.00,473.00
             347.00,473.00 343.67,492.00 343.67,492.00
             343.67,492.00 341.71,507.00 341.71,507.00
             341.71,507.00 341.71,514.00 341.71,514.00
             341.71,514.00 341.00,524.00 341.00,524.00
             341.00,524.00 341.62,540.00 341.62,540.00
             341.62,540.00 341.62,546.00 341.62,546.00
             341.62,546.00 346.17,573.91 346.17,573.91
             346.17,573.91 350.00,588.00 350.00,588.00
             350.00,588.00 352.00,593.00 352.00,593.00
             352.00,593.00 354.00,593.00 354.00,593.00
             354.00,593.00 353.00,595.00 353.00,595.00
             353.00,595.00 355.00,595.00 355.00,595.00
             355.00,595.00 354.00,597.00 354.00,597.00
             354.00,597.00 356.00,597.00 356.00,597.00
             356.36,600.21 356.26,600.25 359.00,602.00
             359.00,602.00 358.00,604.00 358.00,604.00
             358.00,604.00 361.00,605.00 361.00,605.00
             361.00,605.00 364.00,609.00 364.00,609.00
             365.29,615.84 371.55,617.87 376.00,623.00
             376.00,623.00 378.00,622.00 378.00,622.00
             379.75,624.74 379.79,624.64 383.00,625.00
             383.00,625.00 383.00,627.00 383.00,627.00
             383.00,627.00 385.00,626.00 385.00,626.00
             385.00,626.00 385.00,628.00 385.00,628.00
             385.00,628.00 387.00,627.00 387.00,627.00
             387.00,627.00 387.00,629.00 387.00,629.00
             387.00,629.00 392.00,631.00 392.00,631.00
             392.00,631.00 411.00,634.55 411.00,634.55
             411.00,634.55 433.00,634.55 433.00,634.55
             433.00,634.55 439.00,633.30 439.00,633.30
             443.28,632.50 450.18,632.71 453.00,629.00
             453.00,629.00 456.00,630.00 456.00,630.00
             456.00,630.00 464.00,624.00 464.00,624.00
             464.00,624.00 466.00,625.00 466.00,625.00
             466.00,625.00 470.00,620.00 470.00,620.00
             477.26,618.51 485.15,605.33 490.00,600.00
             490.00,600.00 489.00,598.00 489.00,598.00
             489.00,598.00 491.00,598.00 491.00,598.00
             491.00,598.00 490.00,596.00 490.00,596.00
             490.00,596.00 492.00,596.00 492.00,596.00
             492.00,596.00 494.00,587.00 494.00,587.00
             499.17,583.04 500.15,566.53 501.34,560.00
             502.82,551.92 504.01,531.55 504.00,523.00
             504.00,523.00 502.28,502.00 502.28,502.00
             502.28,502.00 502.28,495.00 502.28,495.00
             502.28,495.00 498.00,470.00 498.00,470.00
             498.00,470.00 497.00,467.00 497.00,467.00
             497.00,467.00 495.00,467.00 495.00,467.00
             495.00,467.00 496.00,464.00 496.00,464.00
             496.00,464.00 494.00,459.00 494.00,459.00
             494.00,459.00 492.00,459.00 492.00,459.00
             492.00,459.00 493.00,457.00 493.00,457.00
             493.00,457.00 491.00,457.00 491.00,457.00
             491.00,457.00 492.00,455.00 492.00,455.00
             492.00,455.00 490.00,455.00 490.00,455.00
             490.00,455.00 491.00,453.00 491.00,453.00
             491.00,453.00 489.00,453.00 489.00,453.00
             489.00,453.00 490.00,451.00 490.00,451.00
             490.00,451.00 489.00,449.00 489.00,449.00
             489.00,449.00 486.00,448.00 486.00,448.00
             486.00,448.00 487.00,446.00 487.00,446.00
             487.00,446.00 484.00,445.00 484.00,445.00
             482.85,439.23 473.84,430.15 468.00,429.00
             468.00,429.00 467.00,426.00 467.00,426.00
             467.00,426.00 462.00,423.00 462.00,423.00
             462.00,423.00 460.00,424.00 460.00,424.00
             460.00,424.00 460.00,422.00 460.00,422.00
             460.00,422.00 455.00,420.00 455.00,420.00 Z
           M 781.00,423.00
           C 781.00,423.00 764.00,418.17 764.00,418.17
             764.00,418.17 741.00,415.75 741.00,415.75
             741.00,415.75 722.98,417.64 722.98,417.64
             722.98,417.64 712.00,420.00 712.00,420.00
             712.00,420.00 707.00,422.00 707.00,422.00
             707.00,422.00 707.00,424.00 707.00,424.00
             707.00,424.00 705.00,423.00 705.00,423.00
             705.00,423.00 705.00,425.00 705.00,425.00
             705.00,425.00 703.00,424.00 703.00,424.00
             703.00,424.00 703.00,426.00 703.00,426.00
             703.00,426.00 700.00,428.00 700.00,428.00
             700.00,428.00 698.00,427.00 698.00,427.00
             698.00,427.00 697.00,430.00 697.00,430.00
             697.00,430.00 695.00,429.00 695.00,429.00
             695.00,429.00 694.00,432.00 694.00,432.00
             689.75,432.87 688.92,435.00 685.96,437.96
             683.00,440.92 680.87,441.75 680.00,446.00
             680.00,446.00 677.00,447.00 677.00,447.00
             677.00,447.00 678.00,449.00 678.00,449.00
             678.00,449.00 675.00,450.00 675.00,450.00
             675.00,450.00 676.00,452.00 676.00,452.00
             676.00,452.00 673.00,453.00 673.00,453.00
             673.00,453.00 674.00,455.00 674.00,455.00
             674.00,455.00 672.00,455.00 672.00,455.00
             672.00,455.00 673.00,457.00 673.00,457.00
             673.00,457.00 671.00,457.00 671.00,457.00
             671.00,457.00 672.00,459.00 672.00,459.00
             672.00,459.00 670.00,459.00 670.00,459.00
             670.00,459.00 671.00,461.00 671.00,461.00
             671.00,461.00 669.00,461.00 669.00,461.00
             669.00,461.00 670.00,463.00 670.00,463.00
             670.00,463.00 668.00,463.00 668.00,463.00
             668.00,463.00 666.00,468.00 666.00,468.00
             666.00,468.00 661.68,485.00 661.68,485.00
             659.02,496.63 659.49,495.79 660.00,507.00
             660.00,507.00 821.00,507.00 821.00,507.00
             821.00,507.00 818.81,477.61 818.81,477.61
             818.81,477.61 815.00,462.00 815.00,462.00
             815.00,462.00 813.00,457.00 813.00,457.00
             813.00,457.00 811.00,457.00 811.00,457.00
             811.00,457.00 812.00,455.00 812.00,455.00
             812.00,455.00 810.00,455.00 810.00,455.00
             810.00,455.00 811.00,453.00 811.00,453.00
             811.00,453.00 809.00,453.00 809.00,453.00
             809.00,453.00 807.00,446.00 807.00,446.00
             807.00,446.00 805.00,443.00 805.00,443.00
             805.00,443.00 797.85,435.06 797.85,435.06
             797.85,435.06 790.00,428.00 790.00,428.00
             790.00,428.00 785.00,425.00 785.00,425.00
             785.00,425.00 781.00,423.00 781.00,423.00 Z
           M 1072.00,568.00
           C 1072.00,568.00 1071.00,568.00 1071.00,568.00
             1071.00,568.00 1072.00,569.00 1072.00,569.00
             1072.00,569.00 1072.00,568.00 1072.00,568.00 Z
           M 1978.00,569.00
           C 1978.00,569.00 1977.00,569.00 1977.00,569.00
             1977.00,569.00 1978.00,570.00 1978.00,570.00
             1978.00,570.00 1978.00,569.00 1978.00,569.00 Z
           M 1938.00,612.00
           C 1938.00,612.00 1937.00,612.00 1937.00,612.00
             1937.00,612.00 1938.00,613.00 1938.00,613.00
             1938.00,613.00 1938.00,612.00 1938.00,612.00 Z
           M 1934.00,632.00
           C 1934.00,632.00 1933.00,632.00 1933.00,632.00
             1933.00,632.00 1934.00,633.00 1934.00,633.00
             1934.00,633.00 1934.00,632.00 1934.00,632.00 Z
           M 1018.00,641.00
           C 1018.00,641.00 1017.00,641.00 1017.00,641.00
             1017.00,641.00 1018.00,642.00 1018.00,642.00
             1018.00,642.00 1018.00,641.00 1018.00,641.00 Z" />
</svg>
